<svg width="228" height="232" viewBox="0 0 228 232" fill="none" xmlns="http://www.w3.org/2000/svg">
<path d="M100.258 54.4157C101.225 52.7187 102.187 51.0016 103.174 49.2946C105.067 46.0164 106.885 42.693 108.894 39.4854C111.442 35.4067 114.624 31.8113 117.882 28.2865C122.238 23.5783 126.312 18.6485 129.882 13.3109C132.667 9.15156 136.207 5.70728 140.013 2.5047C140.628 1.98604 141.192 1.40192 141.796 0.878231C143.161 -0.305111 144.445 -0.300076 145.769 0.938657C147.048 2.13207 148 3.58229 148.815 5.11812C150.235 7.80204 151.202 10.6622 151.922 13.6029C153.468 19.9074 154.566 26.2924 155.377 32.7328C155.976 37.4863 156.696 42.2247 157.305 46.9782C158.217 54.0984 158.489 61.2639 158.574 68.4395C158.589 69.6481 158.62 70.8566 158.655 72.0651C158.66 72.2967 158.74 72.5284 158.801 72.8406C160.165 73.0521 161.515 73.2585 162.859 73.475C167.351 74.2001 171.838 74.9454 176.329 75.6604C179.985 76.2446 183.681 76.6424 187.302 77.4027C192.695 78.5407 198.043 79.9154 203.4 81.2096C204.966 81.5872 206.512 82.0404 208.073 82.4282C211.93 83.3799 215.339 85.2128 218.517 87.5593C220.622 89.1103 222.832 90.5202 224.977 92.0157C225.602 92.4488 226.211 92.9272 226.76 93.4559C227.787 94.4479 228.054 95.6665 227.586 97.0059C227.334 97.726 227.002 98.4209 226.644 99.0957C223.975 104.096 220.667 108.658 216.916 112.888C211.487 119.006 205.853 124.928 199.845 130.487C196.27 133.795 192.388 136.63 187.72 138.242C186.541 138.65 185.378 139.108 184.215 139.556C183.55 139.813 182.901 140.1 182.166 140.407C182.352 140.618 182.443 140.754 182.563 140.845C186.154 143.705 189.11 147.16 191.834 150.815C198.325 159.522 204.166 168.636 208.733 178.505C211.971 185.495 214.64 192.706 216.065 200.319C216.226 201.175 216.271 202.097 216.155 202.958C215.888 204.972 214.358 206.03 212.348 205.702C210.697 205.435 209.156 204.786 207.756 203.92C205.737 202.676 203.768 201.347 201.854 199.942C199.357 198.104 196.985 196.1 194.472 194.282C191.693 192.268 188.535 190.898 185.504 189.307C181.44 187.177 177.467 184.875 173.414 182.72C169.008 180.374 164.556 178.113 160.125 175.811C158.957 175.202 157.804 174.563 156.439 173.828C156.394 174.945 156.313 175.857 156.323 176.763C156.384 181.074 156.51 185.384 156.53 189.694C156.555 196.145 156.213 202.575 155.392 208.98C154.858 213.175 154.42 217.38 153.881 221.574C153.629 223.528 153.287 225.477 152.884 227.405C152.688 228.337 152.345 229.268 151.912 230.119C151.036 231.831 149.551 232.426 147.758 231.69C146.736 231.272 145.759 230.648 144.903 229.943C141.756 227.35 139.374 224.102 137.279 220.643C135.069 216.992 132.964 213.281 130.763 209.625C126.569 202.661 121.473 196.387 115.984 190.409C113.018 187.177 110.002 183.979 107.469 180.379C107.051 179.785 106.673 179.165 106.255 178.576C105.863 178.017 105.48 177.443 105.022 176.939C103.969 175.781 103.118 175.59 101.658 176.159C99.7647 176.899 98.0627 178.002 96.5168 179.291C94.0443 181.356 91.6323 183.491 89.2707 185.686C82.221 192.242 75.2368 198.864 68.177 205.405C64.2644 209.031 59.9792 212.168 55.2609 214.691C54.4804 215.109 53.6798 215.486 52.8691 215.849C52.431 216.045 51.9677 216.201 51.5044 216.327C49.2737 216.926 47.4861 215.97 46.7509 213.779C46.2524 212.299 46.187 210.773 46.4136 209.242C46.7157 207.173 47.0279 205.098 47.4106 203.043C48.6292 196.467 50.3412 190.002 51.9375 183.516C53.846 175.776 55.6537 168.012 57.4917 160.257C58.0204 158.026 58.4988 155.78 58.9872 153.539C59.0627 153.192 59.0627 152.835 59.1131 152.356C58.1866 152.185 57.3255 152.029 56.4644 151.873C52.1893 151.097 47.9091 150.327 43.634 149.546C37.4554 148.418 31.2768 147.29 25.1033 146.137C19.6448 145.115 14.1813 144.093 8.73795 142.99C7.0863 142.658 5.46487 142.139 3.87365 141.575C2.93705 141.243 2.04577 140.729 1.21491 140.18C-0.0741767 139.329 -0.149709 138.116 1.00846 137.063C1.65804 136.469 2.37308 135.92 3.1284 135.467C9.58391 131.59 16.0344 127.707 22.5251 123.89C28.2555 120.522 34.001 117.173 39.1373 112.918C40.9601 111.407 42.6269 109.695 44.3289 108.044C45.5323 106.876 46.0359 105.471 45.6884 103.759C45.4921 102.777 45.477 101.759 45.4165 100.752C45.341 99.423 44.8425 98.29 44.1023 97.1822C39.4646 90.2584 34.4845 83.5561 30.2395 76.3755C25.053 67.6087 20.8383 58.3987 18.0889 48.5594C17.0566 44.8784 15.9387 41.2176 15.0223 37.5065C14.2015 34.178 13.6727 30.7891 13.9698 27.3347C14.0454 26.4183 14.1461 25.4817 14.418 24.6055C14.9467 22.8884 16.2157 22.269 17.8975 22.8683C19.6046 23.4725 21.2461 24.2933 22.9834 24.7817C26.9715 25.9047 31.015 26.8362 35.0082 27.939C42.1837 29.923 49.3644 31.8969 56.4997 34.0269C61.7618 35.603 66.6714 38.0654 71.5105 40.6385C75.0655 42.5269 78.5803 44.4957 82.0951 46.4596C83.2533 47.1041 84.3812 47.8141 85.479 48.5594C88.7772 50.8002 92.4078 52.3209 96.1693 53.5445C97.4181 53.9524 98.7525 54.1035 100.258 54.4207V54.4157ZM130.013 77.4329C130.013 77.8912 130.033 78.1681 130.013 78.4451C129.952 79.1299 129.57 79.6083 128.96 79.7694C128.346 79.9305 127.812 79.7694 127.505 79.2105C127.238 78.7271 126.815 78.5559 126.347 78.43C125.144 78.1027 123.945 77.7351 122.722 77.4984C114.911 75.9777 107.006 75.3936 99.0748 75.0914C93.5055 74.8799 88.1981 75.9525 83.1072 78.2437C73.6757 82.4886 67.467 89.6189 64.6219 99.4733C61.9229 108.804 62.215 118.266 64.5011 127.672C65.6341 132.34 67.9504 136.338 71.6313 139.465C73.6556 141.187 75.705 142.884 77.8351 144.46C81.2139 146.963 84.8193 149.098 88.8326 150.423C92.3121 151.566 95.8219 152.603 99.3165 153.696C106.749 156.017 114.302 157.789 122.057 158.61C126.488 159.079 130.894 159.058 135.275 158.081C139.183 157.21 142.914 155.846 146.595 154.3C150.402 152.704 153.504 150.221 155.966 146.923C158.67 143.302 161.087 139.506 163.202 135.512C167.704 127.028 169.597 118.019 168.615 108.447C168.464 106.971 168.152 105.506 167.769 104.071C166.873 100.687 164.803 98.008 162.321 95.6615C159.224 92.7258 156.031 89.8908 152.849 87.0507C149.661 84.2107 145.95 82.408 141.821 81.3052C137.868 80.2528 133.81 79.4774 130.013 77.438V77.4329Z" fill="black"/>
<path d="M130.013 77.433C133.81 79.4724 137.868 80.2479 141.821 81.3003C145.955 82.403 149.661 84.2058 152.849 87.0458C156.036 89.8858 159.224 92.7208 162.321 95.6565C164.798 98.003 166.873 100.687 167.769 104.066C168.147 105.501 168.464 106.971 168.615 108.442C169.597 118.014 167.704 127.018 163.202 135.507C161.087 139.501 158.67 143.297 155.966 146.918C153.498 150.216 150.402 152.699 146.595 154.295C142.914 155.841 139.182 157.205 135.275 158.077C130.894 159.053 126.488 159.074 122.057 158.605C114.297 157.784 106.749 156.012 99.3164 153.691C95.8218 152.598 92.307 151.566 88.8325 150.418C84.8142 149.093 81.2087 146.958 77.835 144.456C75.7049 142.874 73.6555 141.177 71.6312 139.46C67.9503 136.328 65.6339 132.33 64.501 127.667C62.2148 118.266 61.9228 108.804 64.6218 99.4684C67.4719 89.6139 73.6756 82.4836 83.1071 78.2387C88.198 75.9475 93.5054 74.875 99.0747 75.0865C107.006 75.3886 114.916 75.9727 122.721 77.4934C123.945 77.7301 125.138 78.1027 126.347 78.425C126.81 78.5509 127.238 78.7171 127.505 79.2055C127.812 79.7644 128.346 79.9256 128.96 79.7644C129.57 79.6033 129.952 79.13 130.013 78.4401C130.038 78.1631 130.013 77.8862 130.013 77.428V77.433ZM109.659 110.436C109.594 109.474 109.533 108.029 109.397 106.584C109.156 103.97 108.698 101.402 107.841 98.9094C106.703 95.6061 104.609 93.1488 101.577 91.3864C99.2459 90.0318 96.6728 89.3873 94.16 88.5715C92.3422 87.9824 90.6151 88.4708 89.1598 89.624C88.0621 90.4901 87.0096 91.4669 86.1435 92.5596C81.9691 97.8167 79.1492 103.743 77.845 110.335C77.0242 114.474 77.4422 118.528 79.2801 122.36C80.826 125.593 83.0568 128.176 86.5716 129.344C87.9009 129.787 89.2857 130.114 90.6705 130.341C98.1633 131.58 105.132 127.672 107.982 120.628C109.241 117.526 109.594 114.243 109.664 110.431L109.659 110.436ZM145.94 117.264C145.92 111.423 143.991 106.045 140.386 101.709C138.775 99.7705 136.957 97.998 134.56 97.1369C130.849 95.8075 127.007 95.6665 123.144 96.4974C122.857 96.5578 122.596 96.8046 122.359 97.006C122.117 97.2074 121.941 97.4995 121.694 97.6908C120.284 98.7735 119.257 100.158 118.552 101.76C116.226 107.082 115.435 112.641 116.266 118.397C116.679 121.242 117.822 123.8 119.821 125.92C121.634 127.843 123.708 129.425 126.07 130.598C128.623 131.862 131.312 132.647 134.202 132.557C138.81 132.411 142.229 130.386 144.107 126.106C145.366 123.241 145.99 120.215 145.94 117.269V117.264Z" fill="white"/>
<path d="M109.66 110.436C109.589 114.247 109.237 117.526 107.978 120.633C105.128 127.677 98.1587 131.585 90.6659 130.346C89.2811 130.119 87.8964 129.792 86.567 129.349C83.0522 128.176 80.8215 125.598 79.2756 122.365C77.4377 118.528 77.0197 114.479 77.8405 110.34C79.1447 103.743 81.9646 97.8217 86.139 92.5646C87.0051 91.4719 88.0575 90.495 89.1553 89.6289C90.6105 88.4808 92.3377 87.9874 94.1555 88.5765C96.6682 89.3923 99.2414 90.0418 101.573 91.3914C104.604 93.1488 106.699 95.6061 107.837 98.9144C108.693 101.407 109.156 103.975 109.393 106.589C109.524 108.029 109.589 109.479 109.655 110.441L109.66 110.436ZM106.936 110.139C106.769 106.881 106.477 103.638 105.516 100.496C104.806 98.1792 103.668 96.1549 101.663 94.6594C99.05 92.7157 96.064 91.91 92.9067 91.5525C92.519 91.5072 92.1111 91.623 91.7133 91.6834C91.2097 91.759 90.822 91.9453 90.681 92.5244C90.5551 93.0329 90.1271 93.4005 89.6185 93.3552C88.9085 93.2898 88.6165 93.7228 88.269 94.171C84.3715 99.1712 81.6977 104.746 80.4741 110.984C79.8194 114.313 80.1468 117.566 81.4812 120.683C82.9415 124.092 85.293 126.519 89.0697 127.279C89.7394 127.415 90.4041 127.587 91.0788 127.687C98.1386 128.755 104.287 124.706 106.064 117.787C106.709 115.285 107.046 112.732 106.936 110.133V110.139Z" fill="black"/>
<path d="M145.94 117.264C145.991 120.209 145.366 123.236 144.107 126.101C142.229 130.381 138.81 132.405 134.203 132.551C131.312 132.642 128.628 131.857 126.07 130.593C123.709 129.419 121.629 127.838 119.821 125.915C117.822 123.795 116.679 121.237 116.266 118.392C115.435 112.641 116.226 107.082 118.552 101.754C119.252 100.153 120.284 98.7633 121.694 97.6857C121.946 97.4943 122.117 97.2073 122.359 97.0008C122.596 96.7994 122.858 96.5577 123.145 96.4922C127.007 95.6614 130.849 95.8074 134.56 97.1318C136.962 97.9928 138.78 99.7653 140.386 101.704C143.992 106.04 145.915 111.417 145.94 117.259V117.264ZM143.246 116.997C143.261 114.419 142.803 111.815 141.771 109.328C140.426 106.085 138.583 103.194 135.794 100.969C134.328 99.8006 132.687 99.1258 130.829 98.9747C129.59 98.8791 128.346 98.8539 127.113 98.7481C124.726 98.5417 122.988 99.5639 121.755 101.538C121.412 102.082 121.08 102.641 120.833 103.23C119.056 107.424 118.426 111.83 118.713 116.347C118.935 119.802 120.189 122.823 122.893 125.159C125.894 127.753 129.232 129.57 133.266 129.827C137.244 130.084 140.306 128.301 141.695 124.872C142.702 122.39 143.276 119.802 143.246 116.992V116.997Z" fill="black"/>
<path d="M106.935 110.139C107.046 112.737 106.708 115.29 106.064 117.792C104.286 124.711 98.1328 128.755 91.0781 127.692C90.4034 127.592 89.7387 127.42 89.0689 127.284C85.2923 126.524 82.9407 124.097 81.4805 120.688C80.146 117.566 79.8187 114.318 80.4734 110.99C81.697 104.751 84.3708 99.1813 88.2683 94.176C88.6158 93.7278 88.9129 93.2948 89.6178 93.3602C90.1264 93.4055 90.5544 93.0379 90.6803 92.5294C90.8213 91.9452 91.209 91.764 91.7126 91.6884C92.1104 91.628 92.5183 91.5122 92.906 91.5575C96.0633 91.915 99.0543 92.7207 101.663 94.6644C103.667 96.1549 104.805 98.1842 105.515 100.501C106.482 103.643 106.774 106.886 106.935 110.144V110.139ZM84.4313 112.359C84.542 113.331 84.5924 114.464 84.8089 115.562C85.1463 117.309 85.6901 118.996 86.8936 120.381C87.8453 121.483 89.0387 122.103 90.499 121.997C92.6693 121.841 94.7389 121.196 96.4057 119.812C97.7199 118.719 98.863 117.369 99.8953 116C100.505 115.194 100.897 114.147 101.134 113.15C101.945 109.781 101.275 106.578 99.6485 103.592C99.0443 102.485 98.158 101.508 97.297 100.561C96.6977 99.9013 95.7007 99.6042 95.5043 98.5669C95.4842 98.4662 95.3633 98.3655 95.2626 98.3051C94.2656 97.7109 93.3139 96.9959 92.2463 96.5729C90.3882 95.8327 88.8172 96.3312 87.7295 98.003C87.0598 99.0352 86.4857 100.183 86.1232 101.357C85.0406 104.876 84.7435 108.537 84.4313 112.349V112.359Z" fill="white"/>
<path d="M143.246 116.997C143.281 119.812 142.702 122.395 141.695 124.877C140.305 128.302 137.244 130.084 133.266 129.832C129.227 129.576 125.894 127.758 122.892 125.164C120.188 122.828 118.935 119.807 118.713 116.352C118.426 111.835 119.055 107.434 120.833 103.235C121.085 102.646 121.417 102.087 121.754 101.543C122.988 99.569 124.725 98.5417 127.112 98.7532C128.351 98.859 129.595 98.8841 130.828 98.9798C132.687 99.1258 134.328 99.8056 135.793 100.974C138.583 103.2 140.421 106.09 141.771 109.333C142.803 111.815 143.261 114.424 143.246 117.002V116.997ZM138.301 115.965C138.18 112.953 136.957 109.282 134.373 106.11C133.92 105.556 133.346 105.108 133.336 104.282C133.336 104.04 133.11 103.774 132.933 103.567C131.931 102.414 130.108 102.107 128.759 102.832C128.376 103.038 127.978 103.285 127.565 103.351C126.075 103.582 124.856 104.302 123.749 105.284C120.158 108.477 118.753 113.301 120.274 117.521C121.231 120.174 123.018 122.224 125.279 123.865C126.659 124.867 128.15 125.643 129.862 125.905C132.571 126.313 134.766 125.456 136.413 123.246C137.793 121.398 138.326 119.288 138.296 115.96L138.301 115.965Z" fill="white"/>
<path d="M84.4316 112.359C84.7438 108.547 85.046 104.891 86.1236 101.367C86.4861 100.193 87.0602 99.0453 87.7299 98.013C88.8176 96.3412 90.3886 95.8427 92.2467 96.5829C93.3143 97.0059 94.266 97.7209 95.263 98.3151C95.3637 98.3755 95.4846 98.4763 95.5047 98.577C95.7011 99.6143 96.6981 99.9114 97.2973 100.571C98.1534 101.518 99.0447 102.49 99.6489 103.602C101.275 106.588 101.945 109.791 101.134 113.16C100.893 114.157 100.5 115.199 99.8957 116.01C98.8634 117.385 97.7203 118.729 96.4061 119.822C94.7393 121.206 92.6697 121.851 90.4994 122.007C89.0391 122.113 87.8457 121.488 86.894 120.391C85.6905 119.001 85.1517 117.319 84.8093 115.572C84.5978 114.469 84.5424 113.341 84.4316 112.369V112.359ZM91.5317 99.1258C90.4541 98.7331 90.3987 98.7532 89.875 99.7905C90.444 99.5639 90.9073 99.3776 91.5317 99.1258ZM94.7443 102.333C94.7746 102.983 95.0465 103.129 95.6809 102.887C95.2731 102.646 95.0062 102.49 94.7443 102.333Z" fill="black"/>
<path d="M138.301 115.965C138.326 119.293 137.792 121.403 136.418 123.251C134.771 125.456 132.576 126.318 129.866 125.91C128.149 125.653 126.659 124.872 125.284 123.87C123.023 122.224 121.236 120.179 120.279 117.526C118.758 113.301 120.163 108.477 123.753 105.289C124.856 104.307 126.075 103.587 127.57 103.356C127.983 103.29 128.381 103.043 128.764 102.837C130.113 102.117 131.941 102.419 132.938 103.572C133.119 103.779 133.341 104.046 133.341 104.287C133.351 105.108 133.925 105.556 134.378 106.115C136.961 109.287 138.19 112.958 138.306 115.97L138.301 115.965ZM125.868 116.574C125.682 116.04 125.551 115.652 125.335 115.033C124.927 115.859 125.032 116.257 125.868 116.574Z" fill="black"/>
<path d="M91.5317 99.1258C90.9073 99.3776 90.444 99.5639 89.875 99.7905C90.3987 98.7583 90.449 98.7331 91.5317 99.1258Z" fill="white"/>
<path d="M94.7441 102.333C95.011 102.49 95.2729 102.646 95.6807 102.887C95.0463 103.129 94.7744 102.983 94.7441 102.333Z" fill="white"/>
<path d="M125.869 116.574C125.033 116.257 124.927 115.859 125.335 115.033C125.546 115.652 125.682 116.04 125.869 116.574Z" fill="white"/>
</svg>
