<svg width="14" height="14" viewBox="0 0 14 14" fill="none" xmlns="http://www.w3.org/2000/svg">
<path d="M1.49984 12.5001H2.42609L10.6232 4.303L9.69692 3.37675L1.49984 11.5738V12.5001ZM0.416504 13.5834V11.1172L10.7836 0.734039C10.8957 0.619595 11.0163 0.538137 11.1455 0.489665C11.2746 0.441054 11.41 0.416748 11.5515 0.416748C11.6932 0.416748 11.8284 0.439457 11.9571 0.484873C12.086 0.53029 12.2108 0.610706 12.3315 0.726123L13.2659 1.65237C13.3813 1.77307 13.463 1.89807 13.5111 2.02737C13.5591 2.15668 13.5832 2.2898 13.5832 2.42675C13.5832 2.57272 13.5579 2.71203 13.5073 2.84466C13.4566 2.9773 13.3762 3.09855 13.2659 3.20841L2.88275 13.5834H0.416504ZM10.1519 3.848L9.69692 3.37675L10.6232 4.303L10.1519 3.848Z" fill="#B6B6B6"/>
</svg>
