<svg width="16" height="16" viewBox="0 0 16 16" fill="#1C1B1F" xmlns="http://www.w3.org/2000/svg">
<path d="M2.9375 12.0625C3.6875 11.5347 4.48958 11.1424 5.34375 10.8854C6.19792 10.6285 7.08333 10.5 8 10.5C8.91667 10.5 9.80208 10.6285 10.6562 10.8854C11.5104 11.1424 12.3125 11.5347 13.0625 12.0625C13.5486 11.4931 13.9097 10.8611 14.1458 10.1667C14.3819 9.47222 14.5 8.75 14.5 8C14.5 6.19903 13.8665 4.66542 12.5994 3.39917C11.3323 2.13305 9.79757 1.5 7.99521 1.5C6.19285 1.5 4.65972 2.13305 3.39583 3.39917C2.13194 4.66542 1.5 6.19903 1.5 8C1.5 8.75 1.61806 9.47222 1.85417 10.1667C2.09028 10.8611 2.45139 11.4931 2.9375 12.0625ZM8 9.5C7.16667 9.5 6.45833 9.20833 5.875 8.625C5.29167 8.04167 5 7.33333 5 6.5C5 5.66667 5.29167 4.95833 5.875 4.375C6.45833 3.79167 7.16667 3.5 8 3.5C8.83333 3.5 9.54167 3.79167 10.125 4.375C10.7083 4.95833 11 5.66667 11 6.5C11 7.33333 10.7083 8.04167 10.125 8.625C9.54167 9.20833 8.83333 9.5 8 9.5ZM8.00583 16C6.90472 16 5.86806 15.7917 4.89583 15.375C3.92361 14.9583 3.07292 14.3854 2.34375 13.6562C1.61458 12.9271 1.04167 12.0767 0.625 11.105C0.208333 10.1333 0 9.09514 0 7.99042C0 6.88569 0.208333 5.85069 0.625 4.88542C1.04167 3.92014 1.61458 3.07292 2.34375 2.34375C3.07292 1.61458 3.92333 1.04167 4.895 0.625C5.86667 0.208333 6.90486 0 8.00958 0C9.11431 0 10.1493 0.208333 11.1146 0.625C12.0799 1.04167 12.9271 1.61458 13.6562 2.34375C14.3854 3.07292 14.9583 3.92167 15.375 4.89C15.7917 5.85847 16 6.89319 16 7.99417C16 9.09528 15.7917 10.1319 15.375 11.1042C14.9583 12.0764 14.3854 12.9271 13.6562 13.6562C12.9271 14.3854 12.0783 14.9583 11.11 15.375C10.1415 15.7917 9.10681 16 8.00583 16ZM8 14.5C8.72222 14.5 9.41667 14.3854 10.0833 14.1562C10.75 13.9271 11.375 13.5903 11.9583 13.1458C11.3611 12.7708 10.7292 12.4861 10.0625 12.2917C9.39583 12.0972 8.70833 12 8 12C7.29167 12 6.60069 12.0938 5.92708 12.2812C5.25347 12.4688 4.625 12.7569 4.04167 13.1458C4.625 13.5903 5.25 13.9271 5.91667 14.1562C6.58333 14.3854 7.27778 14.5 8 14.5ZM8 8C8.41667 8 8.77083 7.85417 9.0625 7.5625C9.35417 7.27083 9.5 6.91667 9.5 6.5C9.5 6.08333 9.35417 5.72917 9.0625 5.4375C8.77083 5.14583 8.41667 5 8 5C7.58333 5 7.22917 5.14583 6.9375 5.4375C6.64583 5.72917 6.5 6.08333 6.5 6.5C6.5 6.91667 6.64583 7.27083 6.9375 7.5625C7.22917 7.85417 7.58333 8 8 8Z" fill="current"/>
</svg>
