<svg width="16" height="12" viewBox="0 0 16 12" fill="none" xmlns="http://www.w3.org/2000/svg">
<path d="M1.7563 11.5834C1.39088 11.5834 1.07623 11.4515 0.812337 11.1876C0.548448 10.9237 0.416504 10.609 0.416504 10.2436V1.75654C0.416504 1.3814 0.548448 1.06432 0.812337 0.80529C1.07623 0.546262 1.39088 0.416748 1.7563 0.416748H5.8315L7.8315 2.41675H14.2434C14.6185 2.41675 14.9356 2.54626 15.1946 2.80529C15.4537 3.06432 15.5832 3.3814 15.5832 3.75654V10.2436C15.5832 10.609 15.4537 10.9237 15.1946 11.1876C14.9356 11.4515 14.6185 11.5834 14.2434 11.5834H1.7563ZM1.7563 10.5001H14.2434C14.3182 10.5001 14.3797 10.4761 14.4278 10.428C14.4758 10.3799 14.4998 10.3185 14.4998 10.2436V3.75654C14.4998 3.68168 14.4758 3.62022 14.4278 3.57217C14.3797 3.52411 14.3182 3.50008 14.2434 3.50008H7.38275L5.38275 1.50008H1.7563C1.68143 1.50008 1.61998 1.52411 1.57192 1.57217C1.52387 1.62022 1.49984 1.68168 1.49984 1.75654V10.2436C1.49984 10.3185 1.52387 10.3799 1.57192 10.428C1.61998 10.4761 1.68143 10.5001 1.7563 10.5001Z" fill="#1C1B1F"/>
</svg>
