<svg width="11" height="12" viewBox="0 0 11 12" fill="none" xmlns="http://www.w3.org/2000/svg">
<path d="M5.02891 11.0251C3.63353 11.0251 2.44722 10.5365 1.46997 9.55941C0.492594 8.58228 0.00390625 7.39622 0.00390625 6.00122C0.00390625 4.60622 0.492594 3.41978 1.46997 2.44191C2.44722 1.46403 3.63353 0.975098 5.02891 0.975098C5.85578 0.975098 6.61372 1.16066 7.30272 1.53179C7.9916 1.90304 8.56441 2.39391 9.02116 3.00441V0.975098H9.99616V4.81153H6.15972V3.83672H8.42847C8.07072 3.2626 7.59447 2.80466 6.99972 2.46291C6.4051 2.12103 5.74816 1.9501 5.02891 1.9501C3.90391 1.9501 2.94766 2.34385 2.16016 3.13135C1.37266 3.91885 0.978907 4.8751 0.978907 6.0001C0.978907 7.1251 1.37266 8.08135 2.16016 8.86885C2.94766 9.65635 3.90391 10.0501 5.02891 10.0501C6.07891 10.0501 6.97891 9.70322 7.72891 9.00947C8.47891 8.31572 8.91016 7.4626 9.02266 6.4501H10.0207C9.91785 7.7491 9.39116 8.83635 8.44066 9.71185C7.49016 10.5873 6.35291 11.0251 5.02891 11.0251Z" fill="#888888"/>
</svg>
