<svg width="70" height="16" viewBox="0 0 70 16" fill="none" xmlns="http://www.w3.org/2000/svg">
<path d="M18.7716 15.2226H15.5976V8.49093C14.9349 9.27571 13.8537 9.64194 12.8247 9.64194C10.1565 9.64194 8.34277 7.47944 8.34277 4.89839C8.34277 2.31734 10.2088 0.100342 12.8596 0.100342C13.906 0.100342 15.0047 0.51889 15.5627 1.40831H15.5976V0.396814H18.7716V15.2204V15.2226ZM11.6214 4.88095C11.6214 6.01452 12.3713 6.88649 13.6618 6.88649C14.9523 6.88649 15.7022 6.01452 15.7022 4.88095C15.7022 3.74738 14.9523 2.85796 13.6618 2.85796C12.3713 2.85796 11.6214 3.78226 11.6214 4.88095Z" fill="black"/>
<path d="M38.2171 5.40195H31.5378C31.5378 6.69248 32.2179 7.39006 33.5259 7.39006C34.206 7.39006 34.6943 7.16334 35.0431 6.5704H38.095C37.8509 7.61677 37.223 8.38411 36.4034 8.88985C35.5837 9.3956 34.5722 9.63975 33.5433 9.63975C30.5786 9.63975 28.3638 7.96556 28.3638 4.87877C28.3638 1.79197 30.4042 0.100342 33.3166 0.100342C36.4208 0.100342 38.2171 2.01869 38.2171 5.0706V5.40195ZM35.2698 3.57298C35.1129 2.71845 34.3281 2.16038 33.4735 2.16038C32.5492 2.16038 31.7819 2.64869 31.5901 3.57298H35.2698Z" fill="black"/>
<path d="M48.4837 5.40195H41.8044C41.8044 6.69248 42.4845 7.39006 43.7925 7.39006C44.4726 7.39006 44.9609 7.16334 45.3097 6.5704H48.3616C48.1175 7.61677 47.4896 8.38411 46.67 8.88985C45.8503 9.3956 44.8388 9.63975 43.8099 9.63975C40.8452 9.63975 38.6304 7.96556 38.6304 4.87877C38.6304 1.79197 40.6708 0.100342 43.5832 0.100342C46.6874 0.100342 48.4837 2.01869 48.4837 5.0706V5.40195ZM45.5364 3.57298C45.3795 2.71845 44.5947 2.16038 43.7401 2.16038C42.8159 2.16038 42.0485 2.64869 41.8567 3.57298H45.5364Z" fill="black"/>
<path d="M57.1686 6.71201V9.34538H48.1001L52.303 3.03227H48.6582V0.396729H57.5872L53.4017 6.70983H57.1686V6.71201Z" fill="black"/>
<path d="M58.0014 0.396729H61.6637L64.053 4.98332L66.3899 0.396729H69.9998L61.5264 15.4339H57.9688L62.3264 8.12243L58.0014 0.396729Z" fill="black"/>
<path d="M27.8468 0.448975V9.28427H25.2702V8.73492C24.9693 9.50662 23.5218 9.39544 22.4755 9.39544C20.4874 9.39544 19.2666 8.07004 19.2666 5.92498V0.448975H21.9523V4.94837C21.9523 6.37841 22.4406 7.00623 23.5393 7.00623C24.638 7.00623 25.1612 6.41329 25.1612 4.98325V0.448975H27.8468Z" fill="black"/>
<path d="M6.76435 2.70094C6.25642 2.42845 5.55012 2.24752 4.9877 2.24752C4.60621 2.24752 3.95441 2.41101 3.95441 2.88188C3.95441 3.51624 4.9877 3.6078 5.44113 3.69718C6.98234 4.00455 8.14207 4.73047 8.14207 6.45262C8.14207 8.90069 5.91199 9.91436 3.75385 9.91436C2.43063 9.91436 1.12485 9.53287 0 8.84401L1.19679 6.542C1.86821 7.01286 2.99088 7.48373 3.80835 7.48373C4.22472 7.48373 4.84164 7.28536 4.84164 6.77743C4.84164 6.05151 3.80835 6.01663 2.77506 5.74414C1.74177 5.47165 0.70848 4.96372 0.70848 3.29607C0.70848 1.01585 2.77506 0 4.80677 0C5.8575 0 6.91041 0.163495 7.86958 0.599483L6.76435 2.70312V2.70094Z" fill="black"/>
</svg>
