<svg width="12" height="16" viewBox="0 0 12 16" fill="none" xmlns="http://www.w3.org/2000/svg">
<path d="M2.17566 15.725C1.83779 15.725 1.55322 15.6084 1.32197 15.3753C1.09072 15.1422 0.975098 14.8568 0.975098 14.5192V6.88079C0.975098 6.54317 1.09166 6.25779 1.32479 6.02467C1.55791 5.79154 1.84329 5.67498 2.18091 5.67498H4.09903V6.64998H2.18091C2.12316 6.64998 2.07029 6.67404 2.02229 6.72217C1.97416 6.77017 1.9501 6.82304 1.9501 6.88079V14.5192C1.9501 14.5769 1.97416 14.6298 2.02229 14.6778C2.07029 14.7259 2.12316 14.75 2.18091 14.75H9.81929C9.87704 14.75 9.92991 14.7259 9.97791 14.6778C10.026 14.6298 10.0501 14.5769 10.0501 14.5192V6.88079C10.0501 6.82304 10.026 6.77017 9.97791 6.72217C9.92991 6.67404 9.87704 6.64998 9.81929 6.64998H7.90116V5.67498H9.81929C10.1607 5.67498 10.447 5.79154 10.6782 6.02467C10.9095 6.25779 11.0251 6.54317 11.0251 6.88079V14.5192C11.0251 14.8568 10.9085 15.1422 10.6752 15.3753C10.442 15.6084 10.1564 15.725 9.81854 15.725H2.17566ZM5.5126 10.5125V2.40817L4.25635 3.66442L3.55979 2.97498L6.0001 0.534668L8.44041 2.97498L7.74385 3.66442L6.4876 2.40817V10.5125H5.5126Z" fill="#888888"/>
</svg>
