<svg width="12" height="14" viewBox="0 0 12 14" fill="none" xmlns="http://www.w3.org/2000/svg">
<path d="M3.79351 11.125C3.45588 11.125 3.17051 11.0085 2.93738 10.7754C2.70426 10.5422 2.5877 10.2569 2.5877 9.91924V1.38086C2.5877 1.04324 2.70426 0.757862 2.93738 0.524737C3.17051 0.291612 3.45588 0.175049 3.79351 0.175049H10.5319C10.8695 0.175049 11.1549 0.291612 11.388 0.524737C11.6211 0.757862 11.7377 1.04324 11.7377 1.38086V9.91924C11.7377 10.2569 11.6211 10.5422 11.388 10.7754C11.1549 11.0085 10.8695 11.125 10.5319 11.125H3.79351ZM3.79351 10.15H10.5319C10.5896 10.15 10.6425 10.126 10.6905 10.0779C10.7386 10.0299 10.7627 9.97699 10.7627 9.91924V1.38086C10.7627 1.32311 10.7386 1.27024 10.6905 1.22224C10.6425 1.17411 10.5896 1.15005 10.5319 1.15005H3.79351C3.73576 1.15005 3.68288 1.17411 3.63488 1.22224C3.58676 1.27024 3.5627 1.32311 3.5627 1.38086V9.91924C3.5627 9.97699 3.58676 10.0299 3.63488 10.0779C3.68288 10.126 3.73576 10.15 3.79351 10.15ZM1.46851 13.45C1.13088 13.45 0.845508 13.3335 0.612383 13.1004C0.379258 12.8672 0.262695 12.5819 0.262695 12.2442V2.73086H1.2377V12.2442C1.2377 12.302 1.26176 12.3549 1.30988 12.4029C1.35788 12.451 1.41076 12.475 1.46851 12.475H9.18188V13.45H1.46851Z" fill="#888888"/>
</svg>
